<svg width="83" height="24" viewBox="0 0 83 24" fill="none" xmlns="http://www.w3.org/2000/svg">
<mask id="mask0_71348_10264" style="mask-type:alpha" maskUnits="userSpaceOnUse" x="0" y="0" width="24" height="24">
<rect width="24" height="24" fill="#D9D9D9"/>
</mask>
<g mask="url(#mask0_71348_10264)">
<path d="M7 21C6.45 21 5.97917 20.8042 5.5875 20.4125C5.19583 20.0208 5 19.55 5 19V6C4.71667 6 4.47917 5.90417 4.2875 5.7125C4.09583 5.52083 4 5.28333 4 5C4 4.71667 4.09583 4.47917 4.2875 4.2875C4.47917 4.09583 4.71667 4 5 4H9C9 3.71667 9.09583 3.47917 9.2875 3.2875C9.47917 3.09583 9.71667 3 10 3H14C14.2833 3 14.5208 3.09583 14.7125 3.2875C14.9042 3.47917 15 3.71667 15 4H19C19.2833 4 19.5208 4.09583 19.7125 4.2875C19.9042 4.47917 20 4.71667 20 5C20 5.28333 19.9042 5.52083 19.7125 5.7125C19.5208 5.90417 19.2833 6 19 6V19C19 19.55 18.8042 20.0208 18.4125 20.4125C18.0208 20.8042 17.55 21 17 21H7ZM7 6V19H17V6H7ZM9 16C9 16.2833 9.09583 16.5208 9.2875 16.7125C9.47917 16.9042 9.71667 17 10 17C10.2833 17 10.5208 16.9042 10.7125 16.7125C10.9042 16.5208 11 16.2833 11 16V9C11 8.71667 10.9042 8.47917 10.7125 8.2875C10.5208 8.09583 10.2833 8 10 8C9.71667 8 9.47917 8.09583 9.2875 8.2875C9.09583 8.47917 9 8.71667 9 9V16ZM13 16C13 16.2833 13.0958 16.5208 13.2875 16.7125C13.4792 16.9042 13.7167 17 14 17C14.2833 17 14.5208 16.9042 14.7125 16.7125C14.9042 16.5208 15 16.2833 15 16V9C15 8.71667 14.9042 8.47917 14.7125 8.2875C14.5208 8.09583 14.2833 8 14 8C13.7167 8 13.4792 8.09583 13.2875 8.2875C13.0958 8.47917 13 8.71667 13 9V16Z" fill="#29ABE2"/>
</g>
<path d="M37.1364 17.5H33.0114V5.86364H37.1705C38.3409 5.86364 39.3485 6.09659 40.1932 6.5625C41.0379 7.02462 41.6875 7.68939 42.142 8.55682C42.6004 9.42424 42.8295 10.4621 42.8295 11.6705C42.8295 12.8826 42.6004 13.9242 42.142 14.7955C41.6875 15.6667 41.0341 16.3352 40.1818 16.8011C39.3333 17.267 38.3182 17.5 37.1364 17.5ZM35.4716 15.392H37.0341C37.7614 15.392 38.3731 15.2633 38.8693 15.0057C39.3693 14.7443 39.7443 14.3409 39.9943 13.7955C40.2481 13.2462 40.375 12.5379 40.375 11.6705C40.375 10.8106 40.2481 10.108 39.9943 9.5625C39.7443 9.01705 39.3712 8.61553 38.875 8.35795C38.3788 8.10038 37.767 7.97159 37.0398 7.97159H35.4716V15.392ZM48.5838 17.6705C47.6861 17.6705 46.9134 17.4886 46.2656 17.125C45.6217 16.7576 45.1255 16.2386 44.777 15.5682C44.4285 14.8939 44.2543 14.0966 44.2543 13.1761C44.2543 12.2784 44.4285 11.4905 44.777 10.8125C45.1255 10.1345 45.616 9.60606 46.2486 9.22727C46.8849 8.84848 47.6312 8.65909 48.4872 8.65909C49.063 8.65909 49.599 8.75189 50.0952 8.9375C50.5952 9.11932 51.0308 9.39394 51.402 9.76136C51.777 10.1288 52.0687 10.5909 52.277 11.1477C52.4853 11.7008 52.5895 12.3485 52.5895 13.0909V13.7557H45.2202V12.2557H50.3111C50.3111 11.9072 50.2353 11.5985 50.0838 11.3295C49.9323 11.0606 49.7221 10.8504 49.4531 10.6989C49.188 10.5436 48.8793 10.4659 48.527 10.4659C48.1596 10.4659 47.8338 10.5511 47.5497 10.7216C47.2694 10.8883 47.0497 11.1136 46.8906 11.3977C46.7315 11.678 46.6501 11.9905 46.6463 12.3352V13.7614C46.6463 14.1932 46.7259 14.5663 46.8849 14.8807C47.0478 15.1951 47.277 15.4375 47.5724 15.608C47.8679 15.7784 48.2183 15.8636 48.6236 15.8636C48.8925 15.8636 49.1387 15.8258 49.3622 15.75C49.5857 15.6742 49.777 15.5606 49.9361 15.4091C50.0952 15.2576 50.2164 15.072 50.2997 14.8523L52.5384 15C52.4247 15.5379 52.1918 16.0076 51.8395 16.4091C51.491 16.8068 51.0402 17.1174 50.4872 17.3409C49.938 17.5606 49.3035 17.6705 48.5838 17.6705ZM56.5895 5.86364V17.5H54.169V5.86364H56.5895ZM62.5057 17.6705C61.608 17.6705 60.8352 17.4886 60.1875 17.125C59.5436 16.7576 59.0473 16.2386 58.6989 15.5682C58.3504 14.8939 58.1761 14.0966 58.1761 13.1761C58.1761 12.2784 58.3504 11.4905 58.6989 10.8125C59.0473 10.1345 59.5379 9.60606 60.1705 9.22727C60.8068 8.84848 61.553 8.65909 62.4091 8.65909C62.9848 8.65909 63.5208 8.75189 64.017 8.9375C64.517 9.11932 64.9527 9.39394 65.3239 9.76136C65.6989 10.1288 65.9905 10.5909 66.1989 11.1477C66.4072 11.7008 66.5114 12.3485 66.5114 13.0909V13.7557H59.142V12.2557H64.233C64.233 11.9072 64.1572 11.5985 64.0057 11.3295C63.8542 11.0606 63.6439 10.8504 63.375 10.6989C63.1098 10.5436 62.8011 10.4659 62.4489 10.4659C62.0814 10.4659 61.7557 10.5511 61.4716 10.7216C61.1913 10.8883 60.9716 11.1136 60.8125 11.3977C60.6534 11.678 60.572 11.9905 60.5682 12.3352V13.7614C60.5682 14.1932 60.6477 14.5663 60.8068 14.8807C60.9697 15.1951 61.1989 15.4375 61.4943 15.608C61.7898 15.7784 62.1402 15.8636 62.5455 15.8636C62.8144 15.8636 63.0606 15.8258 63.2841 15.75C63.5076 15.6742 63.6989 15.5606 63.858 15.4091C64.017 15.2576 64.1383 15.072 64.2216 14.8523L66.4602 15C66.3466 15.5379 66.1136 16.0076 65.7614 16.4091C65.4129 16.8068 64.9621 17.1174 64.4091 17.3409C63.8598 17.5606 63.2254 17.6705 62.5057 17.6705ZM72.733 8.77273V10.5909H67.4773V8.77273H72.733ZM68.6705 6.68182H71.0909V14.8182C71.0909 15.0417 71.125 15.2159 71.1932 15.3409C71.2614 15.4621 71.3561 15.5473 71.4773 15.5966C71.6023 15.6458 71.7462 15.6705 71.9091 15.6705C72.0227 15.6705 72.1364 15.661 72.25 15.642C72.3636 15.6193 72.4508 15.6023 72.5114 15.5909L72.892 17.392C72.7708 17.4299 72.6004 17.4735 72.3807 17.5227C72.161 17.5758 71.8939 17.608 71.5795 17.6193C70.9962 17.642 70.4848 17.5644 70.0455 17.3864C69.6098 17.2083 69.2708 16.9318 69.0284 16.5568C68.786 16.1818 68.6667 15.7083 68.6705 15.1364V6.68182ZM78.1932 17.6705C77.2955 17.6705 76.5227 17.4886 75.875 17.125C75.2311 16.7576 74.7348 16.2386 74.3864 15.5682C74.0379 14.8939 73.8636 14.0966 73.8636 13.1761C73.8636 12.2784 74.0379 11.4905 74.3864 10.8125C74.7348 10.1345 75.2254 9.60606 75.858 9.22727C76.4943 8.84848 77.2405 8.65909 78.0966 8.65909C78.6723 8.65909 79.2083 8.75189 79.7045 8.9375C80.2045 9.11932 80.6402 9.39394 81.0114 9.76136C81.3864 10.1288 81.678 10.5909 81.8864 11.1477C82.0947 11.7008 82.1989 12.3485 82.1989 13.0909V13.7557H74.8295V12.2557H79.9205C79.9205 11.9072 79.8447 11.5985 79.6932 11.3295C79.5417 11.0606 79.3314 10.8504 79.0625 10.6989C78.7973 10.5436 78.4886 10.4659 78.1364 10.4659C77.7689 10.4659 77.4432 10.5511 77.1591 10.7216C76.8788 10.8883 76.6591 11.1136 76.5 11.3977C76.3409 11.678 76.2595 11.9905 76.2557 12.3352V13.7614C76.2557 14.1932 76.3352 14.5663 76.4943 14.8807C76.6572 15.1951 76.8864 15.4375 77.1818 15.608C77.4773 15.7784 77.8277 15.8636 78.233 15.8636C78.5019 15.8636 78.7481 15.8258 78.9716 15.75C79.1951 15.6742 79.3864 15.5606 79.5455 15.4091C79.7045 15.2576 79.8258 15.072 79.9091 14.8523L82.1477 15C82.0341 15.5379 81.8011 16.0076 81.4489 16.4091C81.1004 16.8068 80.6496 17.1174 80.0966 17.3409C79.5473 17.5606 78.9129 17.6705 78.1932 17.6705Z" fill="#29ABE2"/>
</svg>
