<svg width="63" height="24" viewBox="0 0 63 24" fill="none" xmlns="http://www.w3.org/2000/svg">
<mask id="mask0_48008_4081" style="mask-type:alpha" maskUnits="userSpaceOnUse" x="0" y="0" width="24" height="24">
<rect width="24" height="24" fill="#D9D9D9"/>
</mask>
<g mask="url(#mask0_48008_4081)">
<path d="M5 19H6.4L15.025 10.375L13.625 8.975L5 17.6V19ZM19.3 8.925L15.05 4.725L16.45 3.325C16.8333 2.94167 17.3042 2.75 17.8625 2.75C18.4208 2.75 18.8917 2.94167 19.275 3.325L20.675 4.725C21.0583 5.10833 21.2583 5.57083 21.275 6.1125C21.2917 6.65417 21.1083 7.11667 20.725 7.5L19.3 8.925ZM17.85 10.4L7.25 21H3V16.75L13.6 6.15L17.85 10.4Z" fill="#29ABE2"/>
</g>
<path d="M33.0114 17.5V5.86364H40.8523V7.89205H35.4716V10.6648H40.4489V12.6932H35.4716V15.4716H40.875V17.5H33.0114ZM45.9787 17.642C45.3158 17.642 44.7154 17.4716 44.1776 17.1307C43.6435 16.786 43.2192 16.2803 42.9048 15.6136C42.5942 14.9432 42.4389 14.1212 42.4389 13.1477C42.4389 12.1477 42.5999 11.3163 42.9219 10.6534C43.2438 9.98674 43.6719 9.48864 44.206 9.15909C44.7438 8.82576 45.3329 8.65909 45.973 8.65909C46.4616 8.65909 46.8688 8.74242 47.1946 8.90909C47.5241 9.07197 47.7893 9.27652 47.9901 9.52273C48.1946 9.76515 48.3499 10.0038 48.456 10.2386H48.5298V5.86364H50.9446V17.5H48.5582V16.1023H48.456C48.3423 16.3447 48.1813 16.5852 47.973 16.8239C47.7685 17.0587 47.5014 17.2538 47.1719 17.4091C46.8461 17.5644 46.4484 17.642 45.9787 17.642ZM46.7457 15.7159C47.1359 15.7159 47.4654 15.6098 47.7344 15.3977C48.0071 15.1818 48.2154 14.8807 48.3594 14.4943C48.5071 14.108 48.581 13.6553 48.581 13.1364C48.581 12.6174 48.509 12.1667 48.3651 11.7841C48.2211 11.4015 48.0128 11.1061 47.7401 10.8977C47.4673 10.6894 47.1359 10.5852 46.7457 10.5852C46.348 10.5852 46.0128 10.6932 45.7401 10.9091C45.4673 11.125 45.2609 11.4242 45.1207 11.8068C44.9806 12.1894 44.9105 12.6326 44.9105 13.1364C44.9105 13.6439 44.9806 14.0928 45.1207 14.483C45.2647 14.8693 45.4711 15.1723 45.7401 15.392C46.0128 15.608 46.348 15.7159 46.7457 15.7159ZM52.9347 17.5V8.77273H55.3551V17.5H52.9347ZM54.1506 7.64773C53.7907 7.64773 53.482 7.52841 53.2244 7.28977C52.9706 7.04735 52.8438 6.75758 52.8438 6.42045C52.8438 6.08712 52.9706 5.80114 53.2244 5.5625C53.482 5.32008 53.7907 5.19886 54.1506 5.19886C54.5104 5.19886 54.8172 5.32008 55.071 5.5625C55.3286 5.80114 55.4574 6.08712 55.4574 6.42045C55.4574 6.75758 55.3286 7.04735 55.071 7.28977C54.8172 7.52841 54.5104 7.64773 54.1506 7.64773ZM61.9361 8.77273V10.5909H56.6804V8.77273H61.9361ZM57.8736 6.68182H60.294V14.8182C60.294 15.0417 60.3281 15.2159 60.3963 15.3409C60.4645 15.4621 60.5592 15.5473 60.6804 15.5966C60.8054 15.6458 60.9493 15.6705 61.1122 15.6705C61.2259 15.6705 61.3395 15.661 61.4531 15.642C61.5668 15.6193 61.6539 15.6023 61.7145 15.5909L62.0952 17.392C61.974 17.4299 61.8035 17.4735 61.5838 17.5227C61.3641 17.5758 61.0971 17.608 60.7827 17.6193C60.1993 17.642 59.688 17.5644 59.2486 17.3864C58.813 17.2083 58.474 16.9318 58.2315 16.5568C57.9891 16.1818 57.8698 15.7083 57.8736 15.1364V6.68182Z" fill="#29ABE2"/>
</svg>
