<svg width="43" height="43" viewBox="0 0 43 43" fill="none" xmlns="http://www.w3.org/2000/svg">
<path d="M21.3333 21.3333C18.4 21.3333 15.8889 20.2889 13.8 18.2C11.7111 16.1111 10.6667 13.6 10.6667 10.6667C10.6667 7.73333 11.7111 5.22222 13.8 3.13333C15.8889 1.04444 18.4 0 21.3333 0C24.2667 0 26.7778 1.04444 28.8667 3.13333C30.9556 5.22222 32 7.73333 32 10.6667C32 13.6 30.9556 16.1111 28.8667 18.2C26.7778 20.2889 24.2667 21.3333 21.3333 21.3333ZM37.3333 42.6667H5.33333C3.86667 42.6667 2.61111 42.1444 1.56667 41.1C0.522222 40.0556 0 38.8 0 37.3333V35.2C0 33.6889 0.388889 32.3 1.16667 31.0333C1.94444 29.7667 2.97778 28.8 4.26667 28.1333C7.02222 26.7556 9.82222 25.7222 12.6667 25.0333C15.5111 24.3444 18.4 24 21.3333 24C24.2667 24 27.1556 24.3444 30 25.0333C32.8444 25.7222 35.6444 26.7556 38.4 28.1333C39.6889 28.8 40.7222 29.7667 41.5 31.0333C42.2778 32.3 42.6667 33.6889 42.6667 35.2V37.3333C42.6667 38.8 42.1444 40.0556 41.1 41.1C40.0556 42.1444 38.8 42.6667 37.3333 42.6667ZM5.33333 37.3333H37.3333V35.2C37.3333 34.7111 37.2111 34.2667 36.9667 33.8667C36.7222 33.4667 36.4 33.1556 36 32.9333C33.6 31.7333 31.1778 30.8333 28.7333 30.2333C26.2889 29.6333 23.8222 29.3333 21.3333 29.3333C18.8444 29.3333 16.3778 29.6333 13.9333 30.2333C11.4889 30.8333 9.06667 31.7333 6.66667 32.9333C6.26667 33.1556 5.94444 33.4667 5.7 33.8667C5.45556 34.2667 5.33333 34.7111 5.33333 35.2V37.3333ZM21.3333 16C22.8 16 24.0556 15.4778 25.1 14.4333C26.1444 13.3889 26.6667 12.1333 26.6667 10.6667C26.6667 9.2 26.1444 7.94445 25.1 6.9C24.0556 5.85556 22.8 5.33333 21.3333 5.33333C19.8667 5.33333 18.6111 5.85556 17.5667 6.9C16.5222 7.94445 16 9.2 16 10.6667C16 12.1333 16.5222 13.3889 17.5667 14.4333C18.6111 15.4778 19.8667 16 21.3333 16Z" fill="white"/>
</svg>
